<svg width="50" height="50" viewBox="0 0 50 50" fill="none" xmlns="http://www.w3.org/2000/svg">
<path fill-rule="evenodd" clip-rule="evenodd" d="M39.6531 7.31523C35.501 3.1194 28.726 3.11315 24.5635 7.31523L7.62188 24.4194L10.5844 27.3527L27.524 10.2465C29.9698 7.7819 34.251 7.7819 36.6927 10.2465C39.174 12.7507 39.174 16.8257 36.6927 19.3298L15.4281 40.7986C14.0969 42.1423 12.2073 41.7611 11.2531 40.7965C10.1281 39.659 10.1302 37.8069 11.2573 36.6673L26.3406 21.434L23.3781 18.5027L8.29688 33.7361C5.56979 36.4881 5.56771 40.9715 8.29063 43.7256C10.6052 46.0652 15.1698 46.9756 18.3885 43.7319L39.6552 22.2611C43.7344 18.1402 43.7344 11.4361 39.6531 7.31523Z" fill="#FF6200"/>
</svg>
