<svg width="50" height="53" viewBox="0 0 50 53" fill="none" xmlns="http://www.w3.org/2000/svg">
<path d="M44.167 0C47.3751 0.000181827 49.9998 2.68743 50 5.95801V35.7295C49.9998 39.0001 47.3751 41.6873 44.167 41.6875H31.25L17.833 52.333C17.3955 52.708 16.9372 52.8545 16.5205 52.8545C15.479 52.8543 14.583 51.8954 14.583 50.833V41.6875H5.83301C2.62493 41.6873 0.000175305 39.0001 0 35.7295V5.95801C0.000174181 2.68743 2.62493 0.000181869 5.83301 0H44.167ZM5.8125 4.16699C4.91677 4.16699 4.14568 4.99981 4.14551 5.95801V35.7295C4.14568 36.7085 4.91677 37.5205 5.8125 37.5205H18.7295V46.292L28.6455 38.417L29.792 37.5205H44.167C45.0626 37.5203 45.8328 36.6876 45.833 35.7295V5.95801C45.8328 5.04017 45.1558 4.2686 44.333 4.17578L44.1455 4.16699H5.8125ZM25 8.37207C28.4582 8.37207 31.2498 11.1639 31.25 14.6221C31.25 17.8227 28.8585 20.4501 25.7607 20.8242C31.1783 21.2134 35.4609 25.7371 35.4609 31.2529C35.4608 32.3985 34.5235 33.3358 33.3779 33.3359H16.6279C15.4822 33.3359 14.5441 32.3986 14.5439 31.2529C14.5439 25.7385 18.8246 21.2155 24.2402 20.8242C21.142 20.4506 18.75 17.8231 18.75 14.6221C18.7502 11.1639 21.5418 8.37207 25 8.37207ZM25.0029 24.9609C22.2739 24.9609 19.9197 26.7316 19.0654 29.1689H30.9404C30.0862 26.7108 27.7319 24.9611 25.0029 24.9609ZM25 12.5391C23.8543 12.5391 22.9172 13.4764 22.917 14.6221C22.917 15.7679 23.8542 16.7061 25 16.7061C26.1458 16.7061 27.083 15.7679 27.083 14.6221C27.0828 13.4764 26.1457 12.5391 25 12.5391Z" fill="#A8A8A8"/>
</svg>
