<svg width="50" height="50" viewBox="0 0 50 50" fill="none" xmlns="http://www.w3.org/2000/svg">
<path fill-rule="evenodd" clip-rule="evenodd" d="M25 3.125C37.0625 3.125 46.875 12.9375 46.875 25C46.875 37.0625 37.0625 46.875 25 46.875C12.9375 46.875 3.125 37.0625 3.125 25C3.125 12.9375 12.9375 3.125 25 3.125ZM25 6.25C14.6609 6.25 6.25 14.6609 6.25 25C6.25 35.3391 14.6609 43.75 25 43.75C35.3391 43.75 43.75 35.3391 43.75 25C43.75 14.6609 35.3391 6.25 25 6.25ZM26.8066 32.5698C27.3269 32.5698 27.5347 32.7792 27.5347 33.2277V36.8402C27.5347 37.2902 27.3269 37.4995 26.8066 37.4995H23.1613C22.6738 37.4995 22.4659 37.2902 22.4659 36.8402V33.2277C22.4659 32.7792 22.6738 32.5698 23.1613 32.5698H26.8066ZM26.6675 12.5006C27.1534 12.5006 27.3269 12.7069 27.3269 13.1241L26.8409 28.8209C26.8409 29.1663 26.7019 29.2694 26.3206 29.2694H23.7503C23.3691 29.2694 23.23 29.1663 23.23 28.8209L22.6753 13.1241C22.6753 12.7069 22.8487 12.5006 23.3331 12.5006H26.6675Z" fill="#FF6200"/>
</svg>
