<svg width="50" height="50" viewBox="0 0 50 50" fill="none" xmlns="http://www.w3.org/2000/svg">
<path fill-rule="evenodd" clip-rule="evenodd" d="M42.1875 18.75C44.6875 18.75 46.875 20.9375 46.875 23.4375C46.875 24.5312 46.4063 25.625 45.625 26.5625C46.4063 27.3438 46.875 28.4375 46.875 29.6875C46.875 31.0937 45.9375 32.6562 44.6875 33.5938C45.1562 34.2187 45.3125 35.1562 45.3125 35.9375C45.3125 37.5 44.375 39.0625 42.9688 39.8438C43.4375 40.625 43.75 41.4062 43.75 42.1875C43.75 44.5312 41.4062 46.875 39.0625 46.875H28.125C22.9687 46.875 18.75 44.0625 18.75 40.625V23.4375C18.75 22.9687 18.75 22.1875 20.625 19.375C21.875 17.8125 25 12.8125 25 9.375V7.03125C25 5.9375 25.4687 5 26.25 4.21875C27.0312 3.4375 27.9688 3.125 29.0625 3.125C31.5625 3.125 34.375 4.84375 34.375 9.375C34.375 9.53125 34.375 14.2187 32.3438 18.75H42.1875ZM43.75 29.6875C43.75 28.9062 43.125 28.125 42.1875 28.125H40.625V25H42.1875C43.125 25 43.75 24.0625 43.75 23.4375C43.75 22.6562 42.9688 21.875 42.1875 21.875H26.875L28.4375 19.375C31.25 15.1562 31.25 9.375 31.25 9.375C31.25 6.25 29.5312 6.25 29.0625 6.25C28.75 6.25 28.5938 6.40625 28.4375 6.5625C28.2813 6.5625 28.125 6.71875 28.125 7.03125V9.375C28.125 13.9459 24.3185 19.4992 23.3455 20.9188C23.2209 21.1005 23.1427 21.2145 23.125 21.25C22.6262 21.9483 22.3185 22.5828 22.1206 22.9911C22.0084 23.2224 21.9315 23.381 21.875 23.4375V40.625C21.875 41.875 24.375 43.75 28.125 43.75H39.2188C39.8438 43.75 40.625 42.9688 40.625 42.1875C40.625 41.4062 39.8438 40.625 39.0625 40.625V37.5H40.625C41.4062 37.5 42.1875 36.7188 42.1875 35.9375C42.1875 35.1562 41.5625 34.375 40.625 34.375V31.25H42.1875C42.9688 31.25 43.75 30.4688 43.75 29.6875Z" fill="#A8A8A8"/>
<path fill-rule="evenodd" clip-rule="evenodd" d="M7.8125 20.3125H10.9375C13.5937 20.3125 15.625 22.3438 15.625 25V42.1875C15.625 44.8438 13.5937 46.875 11.0937 46.875H7.8125C5.15625 46.875 3.125 44.8438 3.125 42.1875V25C3.125 22.3438 5.15625 20.3125 7.8125 20.3125ZM11.0937 43.75C11.875 43.75 12.5 43.125 12.5 42.3438V25C12.5 24.0625 11.875 23.4375 10.9375 23.4375H7.8125C6.875 23.4375 6.25 24.0625 6.25 25V42.1875C6.25 42.9688 6.875 43.75 7.8125 43.75H11.0937Z" fill="#A8A8A8"/>
</svg>
