<svg width="50" height="50" viewBox="0 0 50 50" fill="none" xmlns="http://www.w3.org/2000/svg">
<path fill-rule="evenodd" clip-rule="evenodd" d="M25 0C38.7857 0 50 11.2143 50 25C50 38.7857 38.7857 50 25 50C11.2143 50 0 38.7857 0 25C0 11.2143 11.2143 0 25 0ZM25 3.57143C13.1839 3.57143 3.57143 13.1839 3.57143 25C3.57143 36.8161 13.1839 46.4286 25 46.4286C36.8161 46.4286 46.4286 36.8161 46.4286 25C46.4286 13.1839 36.8161 3.57143 25 3.57143ZM25.5214 33.5746C26.1071 33.5746 26.3429 33.8068 26.3429 34.3175V38.5425C26.3429 39.0532 26.1071 39.2854 25.5214 39.2854H21.2536C20.7054 39.2854 20.4732 39.0532 20.4732 38.5425V34.3175C20.4732 33.8068 20.7054 33.5746 21.2536 33.5746H25.5214ZM24.5814 10.7143C29.2796 10.7143 32.7243 12.9839 32.7618 17.5643C32.7618 21.3607 30.4939 23.2393 28.1029 24.9232C26.4618 26.0607 25.56 26.8821 25.56 28.4446V29.3875C25.56 29.7768 25.4029 30.0125 24.8939 30.0125H21.8404C21.3332 30.0125 21.1779 29.7768 21.1779 29.3875V28.4446C21.1779 25.2357 22.6243 23.75 24.8171 22.2214C26.6546 20.9304 27.8279 19.9911 27.8279 17.9161C27.8279 15.8036 26.4189 14.8232 24.1118 14.8232C22.5439 14.8232 20.8243 15.2929 19.3761 15.9607C18.985 16.1554 18.6314 16.1554 18.4368 15.7643L17.3779 13.4929C17.1832 13.1036 17.1046 12.6714 17.7314 12.3589C19.6493 11.4196 21.9582 10.7143 24.5814 10.7143Z" fill="#A8A8A8"/>
</svg>
