<?xml version="1.0" encoding="utf-8"?>
<!-- Generator: Adobe Illustrator 27.8.0, SVG Export Plug-In . SVG Version: 6.00 Build 0)  -->
<svg version="1.1" id="Design" xmlns="http://www.w3.org/2000/svg" xmlns:xlink="http://www.w3.org/1999/xlink" x="0px" y="0px"
	 viewBox="0 0 1200 840" style="enable-background:new 0 0 1200 840;" xml:space="preserve">
<style type="text/css">
	.st0{fill:#FF6200;}
	.st1{fill:#F4836C;}
	.st2{fill:#EBB2D3;}
	.st3{fill:#232144;}
	.st4{fill:#FAD9E8;}
	.st5{fill:#BF7461;}
	.st6{fill:#7B446C;}
	.st7{fill:#EA6C58;}
	.st8{fill:#FFA28F;}
	.st9{fill:#472940;}
	.st10{fill:#F7A190;}
	.st11{fill:#A3422E;}
	.st12{fill:#FFFFFF;}
	.st13{fill:#1C1C1C;}
	.st14{fill:#FA9931;}
	.st15{fill-rule:evenodd;clip-rule:evenodd;fill:#BF7461;}
	.st16{fill-rule:evenodd;clip-rule:evenodd;fill:#420F0F;}
	.st17{fill:#420F0F;}
	.st18{fill:#C6C6C6;}
	.st19{fill:#976186;}
	.st20{fill:#1D1D1B;}
</style>
<path class="st0" d="M163.38,279.48c-5.22,17.19-8.98,34.84-10.68,52.74c-1.69,17.79-1.06,35.52,1.88,53.14
	c1.17,7.02,3,15.25,9.25,19.56c5.28,3.64,12.06,1.77,16.05-2.85c2.44-2.82,3.93-6.41,5.06-9.92c1.24-3.87,1.94-7.91,2.38-11.94
	c0.45-4.13,0.78-8.37,0.8-12.53c0.02-3.73-0.33-7.82-2.82-10.78c-1.95-2.33-5.02-3.49-8.02-2.93c-3.35,0.63-5.96,3.49-7.84,6.15
	c-4.48,6.34-6.07,14.54-6.63,22.14c-0.64,8.62,0.27,17.27,1.48,25.8c1.09,7.73,2.01,15.66,4.39,23.11
	c2.2,6.89,5.73,13.5,11.19,18.36c5.68,5.06,13.48,7.6,18.15,13.79c3.93,5.22,5.61,12.19,4.55,18.64
	c-1.06,6.43-4.8,11.96-10.06,15.75c-10.88,7.84-24.77,8.69-37.36,11.92c-11.48,2.94-24.98,8.9-30.11,20.41
	c-1.22,2.73-1.87,5.61-1.97,8.6c-0.07,2.1,3.19,2.1,3.26,0c0.43-12.39,12.27-19.87,22.73-23.71c11.86-4.35,24.76-4.86,36.48-9.73
	c5.53-2.3,10.8-5.51,14.6-10.23c4.06-5.03,6.17-11.23,5.96-17.7c-0.2-6.29-2.47-12.48-6.6-17.25c-4.92-5.69-12.36-8.15-17.8-13.21
	c-10.88-10.1-12.36-26-14.3-39.85c-1.16-8.24-1.95-16.61-1.31-24.94c0.55-7.06,2.09-14.78,6.41-20.58c1.69-2.27,4.28-4.94,7.39-4.24
	c3.23,0.72,4.44,3.97,4.79,6.9c0.49,4.12-0.04,8.33-0.31,12.45c-0.24,3.74-0.71,7.47-1.57,11.13c-1.4,5.94-4.01,14-10.71,15.72
	c-6.71,1.73-10.86-5.32-12.54-10.71c-1.09-3.49-1.66-7.12-2.23-10.73c-0.67-4.24-1.26-8.48-1.63-12.76
	c-0.75-8.67-0.88-17.39-0.48-26.08c0.78-17.16,3.64-34.17,7.95-50.78c1.04-4.01,2.17-8,3.38-11.97
	C167.13,278.33,163.98,277.47,163.38,279.48L163.38,279.48z"/>
<polygon class="st1" points="856.65,334.11 867.86,380.4 822.84,348.04 "/>
<polygon class="st2" points="193.61,673.01 176.79,666.91 252.69,406.08 269.51,412.18 "/>
<polygon class="st3" points="106.92,181 133.59,190.53 149.42,185.43 136.53,145.42 99.32,157.41 "/>
<rect x="172.78" y="165.04" class="st3" width="18.68" height="45.99"/>
<rect x="120.96" y="325.22" transform="matrix(0.9059 -0.4234 0.4234 0.9059 -122.4945 112.4006)" class="st4" width="141.55" height="13.37"/>
<rect x="74.79" y="366.35" transform="matrix(0.9059 -0.4234 0.4234 0.9059 -149.0642 77.8671)" class="st3" width="51.88" height="16.19"/>
<path class="st3" d="M131.49,380.45L131.49,380.45c-2.39,1.12-5.23,0.08-6.35-2.3l-11.07-23.69c-1.12-2.39-0.08-5.23,2.3-6.35h0
	c2.39-1.12,5.23-0.08,6.35,2.3l11.07,23.69C134.91,376.49,133.88,379.34,131.49,380.45z"/>
<polygon class="st3" points="295.99,301.78 166.21,301.78 159.99,284.76 295.99,284.76 "/>
<path class="st2" d="M1153.04,348.27h6.23c7.18,0,13.05,5.87,13.05,13.05v110.42c0,7.18-5.87,13.05-13.05,13.05h-6.23
	c-7.18,0-13.05-5.87-13.05-13.05V361.33C1139.98,354.15,1145.86,348.27,1153.04,348.27z"/>
<polygon class="st2" points="1184.03,726.31 1175.41,726.31 1129.15,549.48 1137.77,549.48 "/>
<path class="st5" d="M1065.25,318.55l-88.82,45.35c0.4,17.23,17.71,28.9,33.84,22.82l46.84-21.92l10.32-40.86L1065.25,318.55z"/>
<polygon class="st6" points="1076.75,308.75 1043.41,325.62 1050.7,349.67 "/>
<path class="st5" d="M933.31,306.18l73.15,46.39c9.05,5.74,11.36,17.92,5.04,26.57c-6.37,8.72-18.82,10.17-27.02,3.15l-67.4-57.73
	L933.31,306.18z"/>
<line class="st7" x1="906.2" y1="306.85" x2="906.18" y2="307.04"/>
<path class="st8" d="M888.6,296.64l-0.01,0.05c-0.28,2.07,1.17,3.97,3.24,4.26l11.72,1.59c2.07,0.28,3.97-1.17,4.25-3.24l0.01-0.05
	c0.28-2.07-1.17-3.98-3.24-4.26l-11.72-1.59C890.79,293.12,888.88,294.57,888.6,296.64"/>
<path class="st5" d="M925.99,297.12l-7.05-18.46c-0.83-1.87-3.03-2.72-4.9-1.89c-1.87,0.83-2.72,3.03-1.88,4.9l2.81,7.85
	l-23.24-4.66c-2.1-0.3-4.05,1.16-4.34,3.26c-0.3,2.1,1.16,4.04,3.26,4.34l15.96,2.27l-0.08,0.55l-13.55-1.91
	c-2.1-0.3-4.04,1.16-4.34,3.26c-0.3,2.1,1.16,4.05,3.26,4.34l11.89,1.67l-0.08,0.55l-6.98-1.1c-2.1-0.3-4.05,1.16-4.34,3.26
	c-0.3,2.1,1.16,4.05,3.26,4.35l8.64,1.33l-0.08,0.55l-2.47-0.58c-2.1-0.3-4.05,1.16-4.34,3.26c-0.3,2.1,1.16,4.05,3.26,4.35
	l15.05,2.37l0.69,0.08c2.83,0.34-2.74,0.77,0,0l15.58,12.86l7.8-22.9L925.99,297.12z"/>
<path class="st9" d="M937.04,344.09l-10.95,5.36c-1.07,0.52-2.32,0.17-2.78-0.78l-36.36-67.12c-0.72-1.48-0.1-3.27,1.37-3.99
	l15.15-7.41c1.48-0.72,3.27-0.1,3.99,1.37l30.66,69.9C938.6,342.36,938.11,343.57,937.04,344.09z"/>
<path class="st0" d="M907.27,278.01l-15.05,7.36c-5.25,2.57-11.65,0.37-14.22-4.88l-9.94-20.32c-2.57-5.25-0.37-11.65,4.88-14.22
	l15.05-7.36c5.25-2.57,11.65-0.37,14.22,4.88l9.94,20.32C914.71,269.05,912.52,275.45,907.27,278.01z"/>
<path class="st9" d="M937.45,357.93l-0.67,0.33c-1.17,0.57-2.6,0.08-3.17-1.09l-4.87-9.95c-0.57-1.17-0.08-2.6,1.09-3.17l0.67-0.33
	c1.17-0.57,2.6-0.08,3.17,1.09l4.87,9.95C939.11,355.93,938.62,357.36,937.45,357.93z"/>
<path class="st5" d="M892.36,305.44l0,0.05c-0.25,2.07,1.23,3.95,3.3,4.2l11.72,1.4c2.07,0.25,3.95-1.23,4.2-3.3l0.01-0.05
	c0.25-2.07-1.23-3.95-3.3-4.2l-11.72-1.4C894.49,301.89,892.61,303.37,892.36,305.44"/>
<path class="st5" d="M892,300.97l11.77,1.59c2.06,0.28,3.95-1.18,4.23-3.27c0.28-2.08-1.16-4-3.21-4.27l-11.77-1.59"/>
<path class="st5" d="M908.21,319.57c2.06,0.25,3.93-1.23,4.17-3.29l0.02-0.19c0.24-2.06-1.23-3.93-3.28-4.17l-7.59-0.9
	c-2.06-0.24-3.93,1.23-4.17,3.28"/>
<polyline class="st10" points="628.2,244.93 660.01,282.96 691.87,254.89 665.31,223 634.29,240.23 "/>
<path class="st10" d="M733.01,188.4l30.06-11.91c2.07-0.82,3.08-3.16,2.26-5.23l-0.21-0.54c-0.82-2.07-3.16-3.08-5.23-2.26
	l-30.37,12.3L733.01,188.4z"/>
<path class="st10" d="M652.7,249.37l72.98-40.1l-7.21-23.63l-81.63,27.72c-11.26,3.82-16.61,16.65-11.41,27.34
	C630.37,250.85,642.81,254.81,652.7,249.37"/>
<polygon class="st10" points="720.81,209.99 746.59,208.94 738.67,177.06 713.86,187.2 "/>
<path class="st10" d="M743.73,200.02l35.29-12.26c2.1-0.73,3.21-3.03,2.48-5.13l-0.19-0.54c-0.73-2.1-3.02-3.21-5.13-2.48
	l-35.29,12.26L743.73,200.02z"/>
<path class="st10" d="M743.78,208.2l33.91-11.78c2.1-0.73,3.21-3.03,2.48-5.13l-0.19-0.54c-0.73-2.1-3.02-3.21-5.13-2.48
	l-33.91,11.78L743.78,208.2z"/>
<path class="st10" d="M721.2,210.06l33.86,7.36c2.29,0.5,4.55-0.95,5.05-3.24l0.13-0.59c0.5-2.29-0.95-4.55-3.25-5.05l-33.85-7.36
	L721.2,210.06z"/>
<path class="st10" d="M740.58,192.52l30.54-10.61c2.1-0.73,3.21-3.02,2.48-5.13l-0.19-0.54c-0.73-2.1-3.03-3.21-5.13-2.48
	l-30.54,10.61L740.58,192.52z"/>
<path class="st11" d="M778.1,294.17l-58.24-19.11l24.92-75.93c4.14-12.61,17.72-19.48,30.33-15.34l12.57,4.13
	c12.61,4.14,19.48,17.72,15.34,30.33L778.1,294.17z"/>
<path class="st3" d="M687.62,445.21l-3.08-157.86c0,0,54.15-16.32,71.76-16.32c16.04,0,73.96,18.41,73.96,18.41l-5.48,155.77H687.62
	z"/>
<rect x="687.72" y="331.91" class="st3" width="137.17" height="43.66"/>
<path class="st3" d="M859.76,333.23c0,0-8-40.61-31.51-44.19c-16.1-2.46-31.7,6.24-35.36,22.11c-3.66,15.87,11.94,48.16,11.94,48.16
	L859.76,333.23z"/>
<path class="st10" d="M746.46,227.37c1.51-4.6-1-9.55-5.6-11.06c-4.6-1.51-9.55,1-11.06,5.6s1,9.55,5.6,11.06
	C739.99,234.48,744.95,231.97,746.46,227.37"/>
<path class="st10" d="M784.69,239.92c1.51-4.6,6.46-7.1,11.06-5.6c4.6,1.51,7.1,6.46,5.6,11.06c-1.51,4.6-6.46,7.1-11.06,5.6
	C785.68,249.47,783.18,244.52,784.69,239.92"/>
<path class="st1" d="M778.49,283.01V249.2l-43.31-0.12v33.94c0,8.8,7.14,15.94,15.94,15.94h11.44
	C771.35,298.95,778.49,291.82,778.49,283.01"/>
<path class="st10" d="M789.15,254.75l12.15-37.03c4.11-12.52-2.71-26.01-15.23-30.12l-9.72-3.19c-12.52-4.11-26.01,2.71-30.12,15.23
	l-12.15,37.03c-4.11,12.52,2.71,26.01,15.23,30.12l9.72,3.19C771.55,274.09,785.04,267.27,789.15,254.75"/>
<rect x="780.59" y="222.14" transform="matrix(0.3118 -0.9501 0.9501 0.3118 336.6845 913.3201)" class="st11" width="36.5" height="4.19"/>
<rect x="726.28" y="204.23" transform="matrix(0.3118 -0.9501 0.9501 0.3118 316.2452 849.4503)" class="st11" width="36.5" height="4.36"/>
<path class="st11" d="M746.44,207.04l2.43-7.4c2.62-7.97,13.83-11.44,25.05-7.76l3.39,1.11l3.01,0.99l3.39,1.11
	c11.22,3.68,18.2,13.13,15.58,21.1l-2.43,7.4l3.98,1.31l5.39-16.41c2.83-8.64-4.84-18.91-17.15-22.95L775.25,181
	c-12.3-4.04-24.57-0.31-27.41,8.32l-5.39,16.41L746.44,207.04z"/>
<path class="st11" d="M800.22,179.31c-2.59,7.89-11.08,12.19-18.97,9.6c-7.89-2.59-12.19-11.08-9.6-18.97
	c2.59-7.89,11.08-12.19,18.97-9.6C798.51,162.93,802.8,171.42,800.22,179.31"/>
<path class="st12" d="M783.04,229.46c0.13,0.57,0.12,1.17-0.07,1.76c-0.57,1.74-2.44,2.68-4.18,2.11c-1.58-0.52-2.5-2.12-2.22-3.72
	c-1.21,0.45-2.01,1.17-2.12,2.05c-0.22,1.82,2.58,3.64,6.24,4.08c3.66,0.44,6.81-0.68,7.02-2.49
	C787.9,231.71,785.9,230.16,783.04,229.46z"/>
<path class="st11" d="M767.23,215.23c0.5-0.86,0.64-1.88,0.38-2.84c-0.25-0.96-0.88-1.78-1.74-2.28c-3.09-1.8-7.73-4.49-10.82-6.29
	c-0.86-0.5-1.88-0.64-2.84-0.38c-0.96,0.25-1.78,0.88-2.28,1.74c-0.85,1.46-1.66,2.86-1.66,2.86l17.29,10.05
	C765.56,218.08,766.38,216.68,767.23,215.23"/>
<path class="st13" d="M763.23,240.02c-1.32-0.43-2.15-1.43-2.88-2.31c-1.2-1.44-1.93-2.32-4.35-1.09l-0.8-1.57
	c3.68-1.86,5.24,0.02,6.5,1.54c0.63,0.76,1.23,1.48,2.07,1.76c0.86,0.28,1.72,0.08,2.62-0.13c1.81-0.43,4.06-0.96,6.32,2.63
	l-1.49,0.94c-1.59-2.52-2.71-2.26-4.41-1.86C765.76,240.17,764.57,240.45,763.23,240.02"/>
<rect x="768.71" y="249.71" transform="matrix(0.3118 -0.9501 0.9501 0.3118 286.3317 907.6758)" width="2.12" height="12.93"/>
<path class="st10" d="M785.01,299.17l76.8,68.18c9.19,8.38,9.37,22.78,0.41,31.4c-9.04,8.69-23.57,7.84-31.53-1.85l-65.43-79.6
	L785.01,299.17z"/>
<path class="st3" d="M1129.27,430.55l-5.69-20.02l-83.64,9.68l0.18,10.08l-129.36,11.73l-156.84,5.89v70.96l335.32,10.04
	c16.11,0.48,31.49-6.69,41.48-19.33v0c9.59-12.15,14.31-28.32,9.64-43.08C1136.29,453.72,1132.45,439.96,1129.27,430.55z"/>
<path class="st5" d="M1089.15,320.57h15.62c8.5,0,15.38-6.89,15.38-15.38v-33.91h-46.39v33.91
	C1073.76,313.68,1080.65,320.57,1089.15,320.57"/>
<path class="st6" d="M1091.55,296.55c0.26-2.48-17.54,13.03-17.54,13.03c-7.46,10.75-29.32,42.71-30.94,55.69l-5.11,54.5l93.9-0.25
	l-1.89-94.86c-2.16-16.49-17.76-23.33-34.09-20.19C1095.88,304.47,1090.76,303.93,1091.55,296.55"/>
<polygon class="st5" points="1055.97,399.11 1069.79,344.4 1104.5,343.32 1119.39,340.72 1089.86,414.2 "/>
<path class="st6" d="M1079.35,312.91c0.09-0.25,0.15-0.51,0.24-0.77c5.08-13.54,20.17-20.4,33.71-15.32
	c13.28,4.98,20.1,19.6,15.56,32.94l0.03,0.01l-7.17,23.27l-56.42,2.9l14.02-43.04L1079.35,312.91z"/>
<line class="st14" x1="1058.13" y1="200.58" x2="1054.47" y2="201.54"/>
<path class="st15" d="M1120.05,216.44h-67.51v60.99c0,6.77,5.49,12.26,12.26,12.26h55.25v-38.78V216.44z"/>
<path class="st15" d="M1059.09,263.75l0.2-25.03c0,0-7.9,9.56-12.84,15.54c-0.86,1.04-1.14,2.44-0.74,3.73
	c0.4,1.29,1.42,2.29,2.71,2.67C1053.18,262.03,1059.09,263.75,1059.09,263.75"/>
<path class="st15" d="M1086.13,198.87L1086.13,198.87c18.33,0,33.21,14.88,33.21,33.21c0,18.33-14.88,33.21-33.21,33.21"/>
<path class="st16" d="M1129.6,222.6c0-13.49-10.94-24.42-24.42-24.42h-39.58c-3.98,0-7.79,1.58-10.6,4.39
	c-2.81,2.81-4.39,6.62-4.39,10.6v0c0,4.58,1.82,8.98,5.06,12.22c3.24,3.24,7.64,5.06,12.22,5.06h61.71V222.6z"/>
<path class="st16" d="M1129.6,228.93h-52.32v50.13c0,12.77,10.35,23.12,23.12,23.12h29.2V228.93z"/>
<path class="st5" d="M1104.23,252.85c0,4.98-4.04,9.02-9.02,9.02c-0.06,0-0.06-18.04,0-18.04
	C1100.19,243.83,1104.23,247.86,1104.23,252.85"/>
<path class="st17" d="M1055.19,236.33c-0.07,0.6,0.11,1.19,0.51,1.64c0.4,0.45,0.97,0.71,1.57,0.71h13.26l-8.03-4.4
	C1058.45,232.85,1055.52,233.67,1055.19,236.33"/>
<path class="st17" d="M1052.56,269.43L1052.56,269.43c0-1.1,0.88-1.99,1.98-1.99h9.67c-0.05-0.29-4.72,6.9-11.18,7.46
	c-0.13,0.01-0.26,0.02-0.4,0.03C1052.51,274.93,1052.56,269.43,1052.56,269.43"/>
<polygon class="st3" points="719.09,603.17 770.24,596.41 747.85,422.28 686.68,429.69 "/>
<polygon class="st3" points="846.81,599.31 795.66,592.55 818.04,417.38 879.38,424.9 "/>
<polygon class="st3" points="719.09,603.17 724.23,629.76 774.21,624.19 770.24,596.41 "/>
<polygon class="st3" points="795.66,592.55 846.81,599.31 841.98,626.12 791.37,620.33 "/>
<polygon class="st10" points="774.21,624.19 779.14,658.5 737.96,661.93 731.74,628.91 "/>
<polygon class="st10" points="792.44,620.33 791.15,627.94 833.72,633.41 834.9,625.37 "/>
<path class="st3" d="M785.79,665.8l83.86,10.51l1.93-10.72c0,0,1.5-6.86-4.08-9.01c-5.58-2.15-33.03-10.3-33.03-10.3l1.93-12.65
	l-45.25-5.68L785.79,665.8z"/>
<path class="st3" d="M725.31,675.88l-1.93-12.65c0,0,2.15-18.02,25.31-20.8c23.16-2.79,30.46,16.08,30.46,16.08l1.07,11.37
	L725.31,675.88z"/>
<rect x="737.75" y="444.89" class="st3" width="95.23" height="51.8"/>
<polygon class="st3" points="733.24,639.2 775.71,633.62 779.14,658.5 735.82,657.22 "/>
<path class="st2" d="M1159.26,560.97H964.45c-7.18,0-13.05-5.87-13.05-13.05v-81.68c0-7.18,5.87-13.05,13.05-13.05h194.81
	c7.18,0,13.05,5.87,13.05,13.05v81.68C1172.32,555.1,1166.44,560.97,1159.26,560.97z"/>
<polygon class="st18" points="159.57,285.88 427.31,285.88 460.94,208.26 159.57,208.26 "/>
<path class="st3" d="M381.8,235.76h-50.03c-4.23,0-7.66-3.43-7.66-7.66v0c0-4.23,3.43-7.66,7.66-7.66h50.03
	c4.23,0,7.66,3.43,7.66,7.66v0C389.46,232.33,386.03,235.76,381.8,235.76z"/>
<path class="st3" d="M305.3,396.42h-48.62c-6.86,0-12.43-5.56-12.43-12.43v-70.21c0-6.86,5.56-12.43,12.43-12.43h48.62
	c6.86,0,12.43,5.56,12.43,12.43v70.21C317.73,390.86,312.16,396.42,305.3,396.42z"/>
<polygon class="st18" points="225.25,145.15 183.37,182.8 147.12,194.48 129.94,141.13 215.12,113.69 "/>
<circle class="st3" cx="179.25" cy="151.39" r="8.62"/>
<polygon class="st3" points="267.24,428.92 245.71,421.11 258.37,377.62 279.9,385.43 "/>
<polygon class="st3" points="185.64,709.34 164.11,701.53 176.77,658.04 198.29,665.85 "/>
<polygon class="st2" points="384.76,667.28 367.94,673.38 292.04,412.55 308.86,406.45 "/>
<polygon class="st3" points="315.84,421.48 294.31,429.29 281.65,385.8 303.18,377.99 "/>
<polygon class="st3" points="397.44,701.91 375.91,709.72 363.26,666.22 384.78,658.41 "/>
<circle class="st19" cx="163.23" cy="712.66" r="13.65"/>
<path class="st3" d="M139.79,710.23c0-12.93,10.52-23.44,23.44-23.44c12.93,0,23.44,10.52,23.44,23.44H139.79z"/>
<circle class="st19" cx="375.93" cy="712.66" r="13.65"/>
<path class="st3" d="M352.49,710.23c0-12.93,10.52-23.44,23.44-23.44c12.93,0,23.44,10.52,23.44,23.44H352.49z"/>
<path class="st5" d="M970.5,395.7l100.43-7.93c10.64-1.21,20.09,6.84,20.59,17.54c0.51,10.79-8.28,19.72-19.07,19.4l-87.2-12.47
	L970.5,395.7z"/>
<path class="st10" d="M740.6,261.51l25.19,17.28l-5.24,7.6l-24.76-17.9c-1.93-1.33-2.41-3.97-1.09-5.9
	C736.03,260.67,738.67,260.18,740.6,261.51"/>
<path class="st10" d="M766.28,283.33l-21.55,23.43l12.6,8.97c2.58,1.73,5.37,3.09,8.41,3.7L791.26,337l14.82-18.19l-19.24-16.94
	c-0.58-4.57-4.48-13.83-6.81-19.03c-0.43-0.97-1.24-1.7-2.24-2.05l-8.91-2.98"/>
<path class="st10" d="M745.33,291.17l-0.03,0.05c-1.39,1.98-0.9,4.71,1.08,6.09l11.22,7.84c1.98,1.38,4.71,0.9,6.09-1.08l0.03-0.05
	c1.39-1.98,0.9-4.71-1.08-6.09l-11.22-7.84C749.44,288.7,746.72,289.19,745.33,291.17"/>
<path class="st10" d="M741.19,298.74l-0.03,0.05c-1.38,1.99-0.98,4.65,0.89,5.97l10.61,7.43c1.87,1.31,4.51,0.77,5.89-1.21
	l0.03-0.05c1.38-1.98,0.98-4.65-0.89-5.97l-10.61-7.43C745.21,296.21,742.57,296.75,741.19,298.74"/>
<path class="st10" d="M750.39,283.92l-0.03,0.05c-1.38,1.98-0.9,4.71,1.08,6.09l11.22,7.84c1.98,1.38,4.71,0.9,6.09-1.08l0.03-0.05
	c1.38-1.98,0.9-4.71-1.08-6.09l-11.22-7.84C754.51,281.46,751.78,281.94,750.39,283.92"/>
<path class="st10" d="M757.57,296.94l0.05,0.03c1.99,1.37,4.72,0.87,6.09-1.12l7.77-11.27c1.37-1.99,0.87-4.71-1.12-6.08l-0.05-0.03
	c-1.99-1.37-4.71-0.87-6.09,1.12l-7.76,11.27C755.08,292.84,755.58,295.57,757.57,296.94"/>
<rect x="768.49" y="282.98" transform="matrix(0.5674 -0.8234 0.8234 0.5674 98.458 761.1368)" class="st10" width="10.29" height="7.76"/>
<path class="st10" d="M764.21,279.58l-7.76,11.27c-1.37,1.99-0.87,4.71,1.12,6.09l0.05,0.03c1.99,1.37,4.72,0.87,6.09-1.12
	l7.77-11.27"/>
<path class="st10" d="M773.09,282.7c0,0-9.99,9.14-1.06,20.99"/>
<polygon class="st5" points="988.81,417.28 968.47,420.21 970.5,395.7 990.75,398.22 "/>
<path class="st5" d="M954.62,425.81L954.62,425.81c-1.35-1.81-0.95-4.36,0.88-5.68l17.82-12.79l4.82,6.45l-17.94,12.87
	C958.41,427.96,955.93,427.57,954.62,425.81"/>
<path class="st5" d="M946.84,424.6L946.84,424.6c-1.35-1.81-0.95-4.36,0.88-5.68l20.92-14.51l4.82,6.45l-21.04,14.6
	C950.63,426.75,948.15,426.36,946.84,424.6"/>
<path class="st5" d="M937.29,421.19L937.29,421.19c-1.36-1.27-1.49-3.37-0.3-4.79l10.47-12.52l2.7-0.87l3.81,3.98l-11.61,13.89
	C941.07,422.42,938.76,422.56,937.29,421.19"/>
<path class="st5" d="M940.37,423.59L940.37,423.59c-1.3-1.47-1.17-3.71,0.3-5.01l13.65-12.11l5.34,6.03l-12.94,11.47
	C944.87,425.62,942.02,425.45,940.37,423.59"/>
<polygon class="st5" points="970.5,395.71 973.63,401.59 950.58,411.31 947.45,403.89 "/>
<rect x="950.14" y="402.73" transform="matrix(0.8985 -0.4389 0.4389 0.8985 -80.8513 463.8101)" class="st5" width="25.02" height="8.05"/>
<polygon class="st5" points="1014.26,404.02 1008.24,414.14 988,417.38 986.7,397.7 "/>
<path class="st0" d="M119.34,571.03L119.34,571.03c-1.34,0-2.42-1.08-2.42-2.42v-17.08c0-1.34,1.08-2.42,2.42-2.42l0,0
	c1.34,0,2.42,1.08,2.42,2.42v17.08C121.76,569.95,120.68,571.03,119.34,571.03z"/>
<path class="st0" d="M130.1,571.03L130.1,571.03c-1.34,0-2.42-1.08-2.42-2.42v-17.08c0-1.34,1.08-2.42,2.42-2.42h0
	c1.34,0,2.42,1.08,2.42,2.42v17.08C132.52,569.95,131.44,571.03,130.1,571.03z"/>
<path class="st0" d="M136.83,548.17c0-6.69-5.42-12.11-12.11-12.11c-6.69,0-12.11,5.42-12.11,12.11v9.01h24.34L136.83,548.17z"/>
<path class="st12" d="M1057.14,243.58c0,0-1.82,3.19,0.35,6.98c0,0,5.89,1.31,10.16-5.8
	C1067.64,244.76,1061.6,242.96,1057.14,243.58"/>
<path class="st20" d="M1057.14,243.58c0,0-1.82,3.19,0.35,6.98c0,0,0.84,0.19,2.12,0.04c0.79-0.76,1.31-1.97,1.31-3.35
	c0-1.69-0.78-3.14-1.88-3.79C1058.39,243.46,1057.75,243.5,1057.14,243.58z"/>
<path class="st20" d="M1056.09,243.68v-1.07c0,0,6.42-1.79,12.83,0.8l-1.63,2.04C1067.29,245.46,1062.57,243.48,1056.09,243.68"/>
<path class="st12" d="M755.91,220.89c0.05,0.46,0.02,0.94-0.14,1.41c-0.57,1.74-2.44,2.68-4.18,2.11c-1.74-0.57-2.68-2.44-2.11-4.18
	c0.13-0.39,0.33-0.73,0.57-1.03c-0.92,0.1-1.63,0.44-1.97,1.05c-0.9,1.59,0.97,4.35,4.18,6.17c3.21,1.82,6.54,2,7.44,0.41
	C760.57,225.31,758.88,222.71,755.91,220.89z"/>
<path d="M750.05,219.2c-0.24,0.3-0.44,0.64-0.57,1.03c-0.57,1.74,0.38,3.61,2.11,4.18c1.74,0.57,3.61-0.38,4.18-2.11
	c0.15-0.47,0.19-0.95,0.14-1.41c-0.13-0.08-0.25-0.16-0.39-0.23C753.55,219.54,751.52,219.04,750.05,219.2z"/>
<path d="M782.97,231.22c0.19-0.59,0.2-1.19,0.07-1.76c-0.5-0.12-1.02-0.22-1.56-0.29c-1.88-0.22-3.62-0.04-4.91,0.44
	c-0.28,1.6,0.63,3.2,2.22,3.72C780.53,233.91,782.4,232.96,782.97,231.22z"/>
<path class="st11" d="M792.33,230.55c0.31-0.94,0.23-1.97-0.22-2.85c-0.45-0.88-1.23-1.56-2.17-1.87l-11.89-3.9
	c-0.94-0.31-1.97-0.23-2.86,0.22c-0.89,0.45-1.56,1.23-1.87,2.17l-1.03,3.14l19,6.24L792.33,230.55z"/>
<path class="st0" d="M351.73,611.16c-2.88-15.33-9.15-29.91-18.49-42.42c-8.94-11.99-20.28-21.92-32.7-30.18
	c-25.88-17.22-55.76-27.49-85.12-37.01c-15.45-5.01-31.3-9.46-45.22-18.08c-6.75-4.19-12.93-9.36-17.82-15.66
	c-5.33-6.86-8.84-14.83-10.99-23.22c-3.87-15.07-5.04-32.2,0.46-47.02c2.21-5.94,5.83-11.64,10.79-15.68
	c4.52,6.72,10.36,12.44,18.03,15.31c6.62,2.47,15.12,2.79,21.1-1.42c5.55-3.91,8.29-11.74,4.9-17.96
	c-2.53-4.63-7.97-6.36-12.89-6.91c-5.92-0.67-12.04,0.13-17.8,1.52c-4.35,1.05-8.68,2.49-12.48,4.88
	c-5.17-8.5-8.37-18.4-10.57-27.85c-1.41-6.05-2.3-12.16-2.84-18.35c-0.76-8.85-1.65-18.61,1.74-27.05c1.5-3.73,4.17-6.96,7.06-9.7
	c3.37-3.2,7.41-5.46,12.18-5.09c2.09,0.16,2.08-3.1,0-3.26c-8.73-0.67-16.5,6.49-20.66,13.57c-4.64,7.89-4.54,17.85-3.96,26.68
	c0.92,14.04,3.34,27.94,8.63,41.04c1.61,3.99,3.53,8.04,5.83,11.87c-5.95,4.8-10.09,11.37-12.58,18.56
	c-5.29,15.28-4,32.8,0.03,48.22c4.35,16.59,14.38,30.11,28.74,39.41c14.17,9.18,30.52,13.85,46.43,19
	c15.12,4.89,30.2,9.97,44.9,16.03c28.9,11.93,58.09,28.39,75.62,55.17c9.26,14.15,14.11,30.11,16.09,46.81
	c2.37,19.9,1.8,40.89-4.88,59.96c-3.12,8.91-7.69,17.48-14.44,24.18c-6.02,5.97-13.48,10.33-21.5,13.02
	c-17.12,5.73-35.62,4.03-52.27-2.4c-18.86-7.29-35.14-19.76-50.57-32.56c-15.07-12.49-29.72-26.2-46.77-36
	c-34.59-19.88-82.2-23.6-120.14-11.9c-8.45,2.6-16.47,6.03-23.58,11.29v4.1c8-6.58,17.64-10.38,27.53-13.15
	c9.32-2.61,18.9-4.26,28.55-5c19.71-1.5,43.11,0.67,61.92,6.82c9.44,3.08,18.55,7.2,27.02,12.39c8.17,5.01,15.75,11,23.17,17.06
	c14.93,12.19,29.23,25.25,45.3,35.96c15.14,10.1,32.23,18.2,50.55,19.84c16.33,1.47,33.67-2.08,46.99-11.96
	c14.7-10.9,22.09-28.42,25.35-45.97C355.86,649.39,355.22,629.79,351.73,611.16z M155.33,379.93c4.25-2.69,9.49-4.04,14.38-4.99
	c8.05-1.56,25.61-3.05,25.13,9.45c-0.35,9.11-10.06,12.09-17.7,11.08c-6.41-0.85-12.04-4.28-16.5-8.85
	c-1.99-2.04-3.78-4.27-5.39-6.63C155.27,379.97,155.3,379.95,155.33,379.93z"/>
<polyline class="st3" points="695.04,251.58 735.19,280.97 685.84,329.35 648.59,290.04 "/>
<rect x="572.82" y="409.13" class="st4" width="452.86" height="317.19"/>
</svg>
